<?xml version="1.0"?>
<svg xmlns="http://www.w3.org/2000/svg" height="100px" viewBox="0 0 64 64" width="100px" class=""><g><g id="blackhold"><path d="m43.586 9h2.828v2h-2.828z" transform="matrix(.707 -.707 .707 .707 6.109 34.749)" data-original="#000000" class="active-path" data-old_color="#000000" fill="#FFFFFF"/><path d="m52.586 15h2.828v2h-2.828z" transform="matrix(.707 -.707 .707 .707 4.503 42.87)" data-original="#000000" class="active-path" data-old_color="#000000" fill="#FFFFFF"/><path d="m41.757 36h8.485v2h-8.485z" transform="matrix(.707 -.707 .707 .707 -12.69 43.364)" data-original="#000000" class="active-path" data-old_color="#000000" fill="#FFFFFF"/><path d="m49.343 27h11.314v2h-11.314z" transform="matrix(.707 -.707 .707 .707 -3.69 47.092)" data-original="#000000" class="active-path" data-old_color="#000000" fill="#FFFFFF"/><path d="m33.343 15h11.314v2h-11.314z" transform="matrix(.707 -.707 .707 .707 .109 32.263)" data-original="#000000" class="active-path" data-old_color="#000000" fill="#FFFFFF"/><path d="m15.586 60h2.828v2h-2.828z" transform="matrix(.707 -.707 .707 .707 -38.154 29.887)" data-original="#000000" class="active-path" data-old_color="#000000" fill="#FFFFFF"/><path d="m50.293 42.293-4.79 4.79c-.293-.609-.6-1.2-.906-1.747-.212-2.1-2.04-5.015-3.959-7.559l22.069-22.07-1.414-1.414-21.9 21.9c-.511-.629-1-1.214-1.446-1.726l3.758-3.758a1 1 0 0 0 0-1.414l-8-8a1 1 0 0 0 -1.705.705v3h-3a.981.981 0 0 0 -.572.2c-.568-.464-1.173-.941-1.8-1.413l20.079-20.08-1.414-1.414-20.314 20.314c-2.064-1.406-4.18-2.537-5.808-2.7-2.913-1.616-6.82-3.277-9.527-2.5-2.662-.624-4.657-.316-5.917.945-3.4 3.4.345 11.617 6.683 19.828l-7.117 7.113 1.414 1.414 6.953-6.953q1.212 1.494 2.519 2.964l-6.808 5.5a1 1 0 0 0 -.29.383l-3 7a1 1 0 0 0 .024.841l2 4a1 1 0 0 0 1.38.427l9-5a1 1 0 0 0 .5-.678l.779-3.889 1.925.641a1 1 0 0 0 1.048-.267l1.171-1.26c.759.672 1.523 1.331 2.294 1.968l-4.9 4.9 1.414 1.414 5.056-5.056c6.266 4.927 12.6 8.4 16.856 8.4a4.8 4.8 0 0 0 3.533-1.283c1.26-1.259 1.571-3.254.945-5.918a9.747 9.747 0 0 0 -.74-5.8l5.35-5.35zm-7.666 3.618c-.951.542-6.656-2.394-14.15-9.888s-10.421-13.2-9.91-14.128c.457-.264 3.552.592 9.433 5.553v4.552a1 1 0 0 0 .226.633l4.5 5.5a1 1 0 0 0 .724.366h.05a.993.993 0 0 0 .707-.293l2.323-2.323c4.998 5.794 6.445 9.388 6.097 10.028zm-12.627-18.911h3a1 1 0 0 0 1-1v-1.586l5.586 5.586-6.012 6.012-3.574-4.369zm-13.17-6.061c-1.689 3.229 5.492 11.757 10.232 16.5 4.26 4.258 11.579 10.493 15.362 10.493a2.408 2.408 0 0 0 1.137-.263c1.492 3.016 2.066 5.454 1.565 6.815a1.658 1.658 0 0 1 -.388.634c-2.338 2.336-12.209-2.31-22.628-12.728s-15.068-20.29-12.726-22.629a1.675 1.675 0 0 1 .64-.39c1.359-.498 3.791.076 6.806 1.568zm2.87 28.909-2.389-.8a1 1 0 0 0 -1.3.752l-.91 4.547-7.673 4.271-1.328-2.65 2.719-6.346 6.708-5.422c.767.825 1.548 1.639 2.341 2.433.831.831 1.687 1.645 2.552 2.446zm25.033 9.511c-2.673 2.671-13.782-2.473-25.451-14.141s-16.817-22.78-14.141-25.456a3.014 3.014 0 0 1 2.259-.669c-2.727 4.694 4.544 15.957 13.3 24.707 7.481 7.48 16.8 13.883 22.278 13.882a4.759 4.759 0 0 0 2.432-.593 3.01 3.01 0 0 1 -.672 2.27z" data-original="#000000" class="active-path" data-old_color="#000000" fill="#FFFFFF"/><path d="m40 18h2v2h-2z" data-original="#000000" class="active-path" data-old_color="#000000" fill="#FFFFFF"/><path d="m48 18h2v2h-2z" data-original="#000000" class="active-path" data-old_color="#000000" fill="#FFFFFF"/><path d="m41 23h2v2h-2z" data-original="#000000" class="active-path" data-old_color="#000000" fill="#FFFFFF"/><path d="m43 21h2v2h-2z" data-original="#000000" class="active-path" data-old_color="#000000" fill="#FFFFFF"/><path d="m43 25h2v2h-2z" data-original="#000000" class="active-path" data-old_color="#000000" fill="#FFFFFF"/><path d="m45 23h2v2h-2z" data-original="#000000" class="active-path" data-old_color="#000000" fill="#FFFFFF"/><path d="m54 39h2v2h-2z" data-original="#000000" class="active-path" data-old_color="#000000" fill="#FFFFFF"/><path d="m56 37h2v2h-2z" data-original="#000000" class="active-path" data-old_color="#000000" fill="#FFFFFF"/><path d="m56 41h2v2h-2z" data-original="#000000" class="active-path" data-old_color="#000000" fill="#FFFFFF"/><path d="m58 39h2v2h-2z" data-original="#000000" class="active-path" data-old_color="#000000" fill="#FFFFFF"/><path d="m30 6h2v2h-2z" data-original="#000000" class="active-path" data-old_color="#000000" fill="#FFFFFF"/><path d="m32 4h2v2h-2z" data-original="#000000" class="active-path" data-old_color="#000000" fill="#FFFFFF"/><path d="m32 8h2v2h-2z" data-original="#000000" class="active-path" data-old_color="#000000" fill="#FFFFFF"/><path d="m34 6h2v2h-2z" data-original="#000000" class="active-path" data-old_color="#000000" fill="#FFFFFF"/><path d="m23 60h2v2h-2z" data-original="#000000" class="active-path" data-old_color="#000000" fill="#FFFFFF"/><path d="m25 58h2v2h-2z" data-original="#000000" class="active-path" data-old_color="#000000" fill="#FFFFFF"/><path d="m27 60h2v2h-2z" data-original="#000000" class="active-path" data-old_color="#000000" fill="#FFFFFF"/><path d="m50 38h2v2h-2z" data-original="#000000" class="active-path" data-old_color="#000000" fill="#FFFFFF"/><path d="m55 33h2v2h-2z" data-original="#000000" class="active-path" data-old_color="#000000" fill="#FFFFFF"/><path d="m47.722 7.5h15.556v2h-15.556z" transform="matrix(.707 -.707 .707 .707 10.245 41.734)" data-original="#000000" class="active-path" data-old_color="#000000" fill="#FFFFFF"/><path d="m20.836 16.986 6 1a1.009 1.009 0 0 0 .164.014 1 1 0 0 0 .646-.237c.022-.019.031-.046.051-.066l.01.01 3-3-1.414-1.414-1.293 1.293v-1.172l2.707-2.707-1.414-1.414-2.707 2.707h-2.586a1 1 0 0 0 -.707.293l-3 3a1 1 0 0 0 .543 1.693zm3.578-2.986h1.586v1.819l-2.919-.486z" data-original="#000000" class="active-path" data-old_color="#000000" fill="#FFFFFF"/><path d="m2 34h2v2h-2z" data-original="#000000" class="active-path" data-old_color="#000000" fill="#FFFFFF"/><path d="m2 38h2v2h-2z" data-original="#000000" class="active-path" data-old_color="#000000" fill="#FFFFFF"/><path d="m4 36h2v2h-2z" data-original="#000000" class="active-path" data-old_color="#000000" fill="#FFFFFF"/><path d="m1.586 60h2.828v2h-2.828z" transform="matrix(.707 -.707 .707 .707 -42.255 19.988)" data-original="#000000" class="active-path" data-old_color="#000000" fill="#FFFFFF"/></g></g> </svg>
