<svg height="17pt" viewBox="0 0 128 128" width="17pt" xmlns="http://www.w3.org/2000/svg" xmlns:xlink="http://www.w3.org/1999/xlink"><linearGradient id="a" gradientUnits="userSpaceOnUse" x1="90.173" x2="32.381" y1="92.285" y2="34.494"><stop offset="0" stop-color="#e0661b"/><stop offset="1" stop-color="#f4d844"/></linearGradient><path d="m65.083 14.333a1.75 1.75 0 0 1 1.75-1.75h2.25v-2.25a1.75 1.75 0 1 1 3.5 0v2.25h2.25a1.75 1.75 0 1 1 0 3.5h-2.25v2.25a1.75 1.75 0 0 1 -3.5 0v-2.25h-2.25a1.749 1.749 0 0 1 -1.75-1.75zm54.391 41.417a5.75 5.75 0 1 1 -5.75-5.75 5.757 5.757 0 0 1 5.75 5.75zm-3.5 0a2.25 2.25 0 1 0 -2.25 2.25 2.253 2.253 0 0 0 2.25-2.25zm-75.75-26.721a5.75 5.75 0 1 1 5.75 5.75 5.757 5.757 0 0 1 -5.75-5.75zm3.5 0a2.25 2.25 0 1 0 2.25-2.25 2.252 2.252 0 0 0 -2.25 2.25zm-6.07 65.737-1.654 1.722a1.75 1.75 0 0 0 2.525 2.424l1.654-1.723a1.75 1.75 0 0 0 -2.525-2.423zm86-56.435a1.81 1.81 0 0 1 -1.582.955l-14.697-.186-8.485 12a1.751 1.751 0 0 1 -1.429.739 1.686 1.686 0 0 1 -.274-.021 1.75 1.75 0 0 1 -1.4-1.209l-2.66-8.557-17.945 18.687a1.578 1.578 0 0 1 -.647.674l-30.223 31.473a1.75 1.75 0 0 1 -2.525-2.424l29.364-30.578-3.032-3.038-50.273 48.277 5.031 5.031 9.037-9.41a1.75 1.75 0 0 1 2.524 2.424l-10.278 10.7c-.007.007-.012.015-.018.022l-.015.012-6.827 7.11a7.229 7.229 0 0 1 -5.173 2.239h-.086a7.295 7.295 0 0 1 -5.053-12.551l7.108-6.825.011-.014c.006-.006.014-.01.02-.016l52.481-50.4a1.714 1.714 0 0 1 .255-.333 1.74 1.74 0 0 1 .386-.283l14.951-14.353a1.75 1.75 0 1 1 2.42 2.524l-13.976 13.422 2.932 2.937 18.367-19.127-.515-1.66-14.028-4.363a1.75 1.75 0 0 1 -.492-3.1l12-8.485-.194-14.694a1.75 1.75 0 0 1 2.8-1.425l3.453 2.577a1.75 1.75 0 0 1 -2.097 2.805l-.611-.456.155 12.069a1.751 1.751 0 0 1 -.739 1.451l-9.856 6.969 11.527 3.58a1.75 1.75 0 0 1 1.154 1.155l3.58 11.526 6.969-9.855a1.793 1.793 0 0 1 1.451-.74l12.069.155-7.218-9.673a1.75 1.75 0 0 1 -.255-1.609l3.876-11.431-11.43 3.872a1.738 1.738 0 0 1 -1.609-.255l-3.613-2.691a1.75 1.75 0 0 1 2.094-2.805l2.875 2.145 13.916-4.719a1.75 1.75 0 0 1 2.22 2.219l-4.719 13.917 8.794 11.778a1.751 1.751 0 0 1 .152 1.842zm-108.333 69.216-5.909 5.675a3.795 3.795 0 1 0 5.365 5.366l5.675-5.909zm83.25-69.423a1.752 1.752 0 0 0 2.44-.418l3.818-5.4a1.75 1.75 0 1 0 -2.857-2.021l-3.819 5.4a1.75 1.75 0 0 0 .418 2.439zm-62.071 27.626h2.25v2.25a1.75 1.75 0 0 0 3.5 0v-2.25h2.25a1.75 1.75 0 0 0 0-3.5h-2.25v-2.25a1.75 1.75 0 0 0 -3.5 0v2.25h-2.25a1.75 1.75 0 0 0 0 3.5zm67.5 8.48h-2.25v-2.25a1.75 1.75 0 0 0 -3.5 0v2.25h-2.25a1.75 1.75 0 0 0 0 3.5h2.25v2.25a1.75 1.75 0 0 0 3.5 0v-2.25h2.25a1.75 1.75 0 0 0 0-3.5z" fill="url(#a)"/></svg>